<svg width="32" height="33" viewBox="0 0 32 33" fill="none" xmlns="http://www.w3.org/2000/svg">
<path d="M16 29.833L13.3333 21.833H2.66666L5.33332 29.833H16ZM16 29.833H21.3333" stroke="white" stroke-width="1.5" stroke-linecap="round" stroke-linejoin="round"/>
<path d="M16 17.833V17.1663C16 14.6522 16 13.3951 15.2189 12.6141C14.4379 11.833 13.1808 11.833 10.6667 11.833C8.15252 11.833 6.89544 11.833 6.1144 12.6141C5.33334 13.3951 5.33334 14.6522 5.33334 17.1663V17.833" stroke="white" stroke-width="1.5" stroke-linecap="round" stroke-linejoin="round"/>
<path d="M25.3333 17.8337C25.3333 19.3065 24.1395 20.5003 22.6667 20.5003C21.1939 20.5003 20 19.3065 20 17.8337C20 16.3609 21.1939 15.167 22.6667 15.167C24.1395 15.167 25.3333 16.3609 25.3333 17.8337Z" stroke="white" stroke-width="1.5"/>
<path d="M13.3333 5.83366C13.3333 7.30642 12.1394 8.50033 10.6667 8.50033C9.19391 8.50033 8 7.30642 8 5.83366C8 4.3609 9.19391 3.16699 10.6667 3.16699C12.1394 3.16699 13.3333 4.3609 13.3333 5.83366Z" stroke="white" stroke-width="1.5"/>
<path d="M18.6667 23.833H26.6667C28.1395 23.833 29.3333 25.0269 29.3333 26.4997V27.1663C29.3333 28.6391 28.1395 29.833 26.6667 29.833H25.3333" stroke="white" stroke-width="1.5" stroke-linecap="round"/>
</svg>
