<svg width="32" height="33" viewBox="0 0 32 33" fill="none" xmlns="http://www.w3.org/2000/svg">
<path d="M24.958 14.7871C24.7011 15.0309 24.3576 15.167 24.0001 15.167C23.6427 15.167 23.2992 15.0309 23.0423 14.7871C20.6889 12.5426 17.5353 10.0351 19.0733 6.39479C19.9048 4.42649 21.9009 3.16699 24.0001 3.16699C26.0993 3.16699 28.0953 4.42649 28.9269 6.39479C30.4629 10.0306 27.3171 12.5503 24.958 14.7871Z" stroke="white" stroke-width="1.5"/>
<path d="M24 8.5H24.012" stroke="white" stroke-width="2" stroke-linecap="round" stroke-linejoin="round"/>
<path d="M6.66666 29.833C8.8758 29.833 10.6667 28.0421 10.6667 25.833C10.6667 23.6239 8.8758 21.833 6.66666 21.833C4.45752 21.833 2.66666 23.6239 2.66666 25.833C2.66666 28.0421 4.45752 29.833 6.66666 29.833Z" stroke="white" stroke-width="1.5" stroke-linecap="round" stroke-linejoin="round"/>
<path d="M14.6667 9.83301H12.6667C10.0893 9.83301 8 11.6239 8 13.833C8 16.0422 10.0893 17.833 12.6667 17.833H16.6667C19.244 17.833 21.3333 19.6238 21.3333 21.833C21.3333 24.0422 19.244 25.833 16.6667 25.833H14.6667" stroke="white" stroke-width="1.5" stroke-linecap="round" stroke-linejoin="round"/>
</svg>
